<?xml version="1.0" encoding="UTF-8" standalone="no"?>
<!-- Created with Inkscape (http://www.inkscape.org/) -->

<svg
   xmlns:dc="http://purl.org/dc/elements/1.1/"
   xmlns:cc="http://creativecommons.org/ns#"
   xmlns:rdf="http://www.w3.org/1999/02/22-rdf-syntax-ns#"
   xmlns:svg="http://www.w3.org/2000/svg"
   xmlns="http://www.w3.org/2000/svg"
   xmlns:sodipodi="http://sodipodi.sourceforge.net/DTD/sodipodi-0.dtd"
   xmlns:inkscape="http://www.inkscape.org/namespaces/inkscape"
   width="16"
   height="16"
   id="svg8465"
   version="1.1"
   inkscape:version="0.48.3.1 r9886"
   inkscape:export-filename="/home/john/.config/sublime-text-2/Packages/Xdebug/icons/current_breakpoint.png"
   inkscape:export-xdpi="90"
   inkscape:export-ydpi="90"
   sodipodi:docname="current_breakpoint.svg">
  <defs
     id="defs8467">
    <clipPath
       clipPathUnits="userSpaceOnUse"
       id="clipPath5443">
      <path
         inkscape:connector-curvature="0"
         d="m 0,1600 612,0 L 612,0 0,0 0,1600 z"
         id="path5445" />
    </clipPath>
    <clipPath
       clipPathUnits="userSpaceOnUse"
       id="clipPath5747">
      <path
         inkscape:connector-curvature="0"
         d="m 0,1600 612,0 L 612,0 0,0 0,1600 z"
         id="path5749" />
    </clipPath>
    <clipPath
       clipPathUnits="userSpaceOnUse"
       id="clipPath7693">
      <path
         inkscape:connector-curvature="0"
         d="m 0,1600 612,0 L 612,0 0,0 0,1600 z"
         id="path7695" />
    </clipPath>
    <clipPath
       clipPathUnits="userSpaceOnUse"
       id="clipPath5111">
      <path
         inkscape:connector-curvature="0"
         d="m 0,1600 612,0 L 612,0 0,0 0,1600 z"
         id="path5113" />
    </clipPath>
    <clipPath
       clipPathUnits="userSpaceOnUse"
       id="clipPath5111-5">
      <path
         inkscape:connector-curvature="0"
         d="m 0,1600 612,0 L 612,0 0,0 0,1600 z"
         id="path5113-0" />
    </clipPath>
    <clipPath
       clipPathUnits="userSpaceOnUse"
       id="clipPath7693-8">
      <path
         inkscape:connector-curvature="0"
         d="m 0,1600 612,0 L 612,0 0,0 0,1600 z"
         id="path7695-6" />
    </clipPath>
    <clipPath
       clipPathUnits="userSpaceOnUse"
       id="clipPath5443-0">
      <path
         inkscape:connector-curvature="0"
         d="m 0,1600 612,0 L 612,0 0,0 0,1600 z"
         id="path5445-4" />
    </clipPath>
    <clipPath
       clipPathUnits="userSpaceOnUse"
       id="clipPath7693-8-4">
      <path
         inkscape:connector-curvature="0"
         d="m 0,1600 612,0 L 612,0 0,0 0,1600 z"
         id="path7695-6-5" />
    </clipPath>
    <clipPath
       clipPathUnits="userSpaceOnUse"
       id="clipPath5784">
      <path
         inkscape:connector-curvature="0"
         d="m 0,1600 612,0 L 612,0 0,0 0,1600 z"
         id="path5786" />
    </clipPath>
  </defs>
  <sodipodi:namedview
     id="base"
     pagecolor="#ffffff"
     bordercolor="#666666"
     borderopacity="1.0"
     inkscape:pageopacity="0.0"
     inkscape:pageshadow="2"
     inkscape:zoom="26.25"
     inkscape:cx="8"
     inkscape:cy="8"
     inkscape:document-units="px"
     inkscape:current-layer="layer1"
     showgrid="false"
     inkscape:window-width="927"
     inkscape:window-height="1029"
     inkscape:window-x="993"
     inkscape:window-y="24"
     inkscape:window-maximized="0"
     inkscape:showpageshadow="false" />
  <metadata
     id="metadata8470">
    <rdf:RDF>
      <cc:Work
         rdf:about="">
        <dc:format>image/svg+xml</dc:format>
        <dc:type
           rdf:resource="http://purl.org/dc/dcmitype/StillImage" />
        <dc:title></dc:title>
      </cc:Work>
    </rdf:RDF>
  </metadata>
  <g
     inkscape:label="Layer 1"
     inkscape:groupmode="layer"
     id="layer1"
     transform="translate(0,-1036.3622)">
    <path
       style="color:#000000;fill:#cccccc;fill-opacity:1;fill-rule:nonzero;stroke:none;stroke-width:1.74800003000000004;marker:none;visibility:visible;display:inline;overflow:visible;enable-background:accumulate"
       d="m 8,1038.3622 c -3.3137084,0 -6,2.6863 -6,6 0,3.3137 2.6862916,6 6,6 3.313708,0 6,-2.6863 6,-6 0,-3.3137 -2.686292,-6 -6,-6 z m -1.71875,1 c 0.1807405,-0.024 0.3498072,0.041 0.5,0.1875 l 4.375,4.375 c 0.125585,0.1256 0.192591,0.2644 0.1875,0.4375 0,0.168 -0.0687,0.3187 -0.1875,0.4375 l -4.375,4.375 c -0.200257,0.2003 -0.432936,0.2387 -0.6875,0.125 -0.254564,-0.1086 -0.375,-0.2876 -0.375,-0.5625 l 0,-8.75 c 0,-0.2647 0.120436,-0.4539 0.375,-0.5625 0.063641,-0.027 0.1272532,-0.054 0.1875,-0.063 z"
       id="path7248"
       inkscape:connector-curvature="0" />
    <g
       transform="matrix(1.6970936,0,0,-1.6970936,-551.02583,1644.7058)"
       id="g5780"
       style="fill:#ffffff;fill-opacity:1">
      <g
         id="g5782"
         clip-path="url(#clipPath5784)"
         style="fill:#ffffff;fill-opacity:1">
        <g
           id="g5788"
           transform="translate(328.0596,356.3291)"
           style="fill:#ffffff;fill-opacity:1" />
      </g>
    </g>
  </g>
</svg>
